<svg width="200" height="92" viewBox="0 0 200 92" fill="none" xmlns="http://www.w3.org/2000/svg">
<rect width="200" height="92" fill="#121314"/>
<path d="M21.824 42V24.48H27.368C28.536 24.48 29.544 24.696 30.392 25.128C31.256 25.56 31.928 26.168 32.408 26.952C32.888 27.72 33.128 28.632 33.128 29.688C33.128 30.84 32.832 31.856 32.24 32.736C31.664 33.616 30.88 34.24 29.888 34.608L33.368 42H30.008L26.96 35.04H24.824V42H21.824ZM24.824 32.4H27.368C28.216 32.4 28.88 32.168 29.36 31.704C29.84 31.24 30.08 30.6 30.08 29.784C30.08 28.952 29.84 28.304 29.36 27.84C28.88 27.36 28.216 27.12 27.368 27.12H24.824V32.4ZM35.2306 42L39.6466 24.48H43.5106L47.9506 42H44.8786L43.9186 37.752H39.2626L38.3026 42H35.2306ZM39.8146 35.304H43.3666L42.3106 30.6C42.1346 29.816 41.9826 29.112 41.8546 28.488C41.7266 27.848 41.6386 27.384 41.5906 27.096C41.5426 27.384 41.4546 27.848 41.3266 28.488C41.2146 29.112 41.0626 29.808 40.8706 30.576L39.8146 35.304ZM51.2533 42V24.48H54.2533V39.216H61.6933V42H51.2533ZM65.0199 42V24.48H70.8519C72.0199 24.48 73.0359 24.704 73.8999 25.152C74.7799 25.6 75.4599 26.232 75.9399 27.048C76.4199 27.848 76.6599 28.792 76.6599 29.88C76.6599 30.952 76.4119 31.896 75.9159 32.712C75.4359 33.528 74.7639 34.16 73.8999 34.608C73.0359 35.056 72.0199 35.28 70.8519 35.28H68.0199V42H65.0199ZM68.0199 32.568H70.8519C71.6839 32.568 72.3479 32.328 72.8439 31.848C73.3559 31.352 73.6119 30.696 73.6119 29.88C73.6119 29.048 73.3559 28.392 72.8439 27.912C72.3479 27.432 71.6839 27.192 70.8519 27.192H68.0199V32.568ZM79.4105 42V24.48H82.4105V31.512H87.1145V24.48H90.1145V42H87.1145V34.296H82.4105V42H79.4105ZM22.112 68V50.48H32.624V53.096H25.064V57.656H31.784V60.248H25.064V65.384H32.624V68H22.112ZM36.1906 68V50.48H41.3986C42.5826 50.48 43.6066 50.704 44.4706 51.152C45.3506 51.6 46.0306 52.232 46.5106 53.048C46.9906 53.864 47.2306 54.832 47.2306 55.952V62.504C47.2306 63.608 46.9906 64.576 46.5106 65.408C46.0306 66.224 45.3506 66.864 44.4706 67.328C43.6066 67.776 42.5826 68 41.3986 68H36.1906ZM39.1906 65.24H41.3986C42.2626 65.24 42.9506 65 43.4626 64.52C43.9746 64.024 44.2306 63.352 44.2306 62.504V55.952C44.2306 55.12 43.9746 54.464 43.4626 53.984C42.9506 53.488 42.2626 53.24 41.3986 53.24H39.1906V65.24ZM50.9653 68L49.1653 50.48H51.7573L52.8133 62.72C52.8453 62.992 52.8693 63.328 52.8853 63.728C52.9173 64.112 52.9413 64.504 52.9573 64.904C52.9893 65.304 53.0053 65.656 53.0053 65.96C53.0373 65.656 53.0693 65.304 53.1013 64.904C53.1333 64.504 53.1653 64.112 53.1973 63.728C53.2453 63.328 53.2853 62.992 53.3173 62.72L54.7573 50.48H57.2773L58.6213 62.72C58.6693 62.992 58.7093 63.328 58.7413 63.728C58.7893 64.112 58.8373 64.504 58.8853 64.904C58.9333 65.304 58.9733 65.656 59.0053 65.96C59.0213 65.656 59.0373 65.304 59.0533 64.904C59.0693 64.504 59.0853 64.112 59.1013 63.728C59.1333 63.328 59.1653 62.992 59.1973 62.72L60.2293 50.48H62.7973L60.9012 68H57.5893L56.2933 55.712C56.2613 55.408 56.2213 55.056 56.1733 54.656C56.1413 54.24 56.1093 53.832 56.0773 53.432C56.0453 53.016 56.0213 52.664 56.0053 52.376C55.9893 52.664 55.9573 53.016 55.9093 53.432C55.8773 53.832 55.8453 54.24 55.8133 54.656C55.7813 55.056 55.7493 55.408 55.7173 55.712L54.3013 68H50.9653ZM64.0119 68L68.4279 50.48H72.2919L76.7319 68H73.6599L72.6999 63.752H68.0439L67.0839 68H64.0119ZM68.5959 61.304H72.1479L71.0919 56.6C70.9159 55.816 70.7639 55.112 70.6359 54.488C70.5079 53.848 70.4199 53.384 70.3719 53.096C70.3239 53.384 70.2359 53.848 70.1079 54.488C69.9959 55.112 69.8439 55.808 69.6519 56.576L68.5959 61.304ZM79.3865 68V50.48H84.9305C86.0985 50.48 87.1065 50.696 87.9545 51.128C88.8185 51.56 89.4905 52.168 89.9705 52.952C90.4505 53.72 90.6905 54.632 90.6905 55.688C90.6905 56.84 90.3945 57.856 89.8025 58.736C89.2265 59.616 88.4425 60.24 87.4505 60.608L90.9305 68H87.5705L84.5225 61.04H82.3865V68H79.3865ZM82.3865 58.4H84.9305C85.7785 58.4 86.4425 58.168 86.9225 57.704C87.4025 57.24 87.6425 56.6 87.6425 55.784C87.6425 54.952 87.4025 54.304 86.9225 53.84C86.4425 53.36 85.7785 53.12 84.9305 53.12H82.3865V58.4ZM93.7531 68V50.48H98.9611C100.145 50.48 101.169 50.704 102.033 51.152C102.913 51.6 103.593 52.232 104.073 53.048C104.553 53.864 104.793 54.832 104.793 55.952V62.504C104.793 63.608 104.553 64.576 104.073 65.408C103.593 66.224 102.913 66.864 102.033 67.328C101.169 67.776 100.145 68 98.9611 68H93.7531ZM96.7531 65.24H98.9611C99.8251 65.24 100.513 65 101.025 64.52C101.537 64.024 101.793 63.352 101.793 62.504V55.952C101.793 55.12 101.537 54.464 101.025 53.984C100.513 53.488 99.8251 53.24 98.9611 53.24H96.7531V65.24ZM113.592 68.24C112.392 68.24 111.352 68.04 110.472 67.64C109.592 67.24 108.912 66.672 108.432 65.936C107.968 65.184 107.728 64.304 107.712 63.296H110.712C110.712 64.016 110.968 64.584 111.48 65C112.008 65.4 112.72 65.6 113.616 65.6C114.48 65.6 115.152 65.4 115.632 65C116.128 64.6 116.376 64.048 116.376 63.344C116.376 62.752 116.2 62.24 115.848 61.808C115.512 61.36 115.024 61.056 114.384 60.896L112.368 60.344C110.992 59.992 109.928 59.36 109.176 58.448C108.44 57.536 108.072 56.432 108.072 55.136C108.072 54.144 108.296 53.28 108.744 52.544C109.192 51.808 109.824 51.24 110.64 50.84C111.472 50.44 112.448 50.24 113.568 50.24C115.264 50.24 116.608 50.68 117.6 51.56C118.592 52.424 119.096 53.592 119.112 55.064H116.112C116.112 54.376 115.888 53.84 115.44 53.456C114.992 53.056 114.36 52.856 113.544 52.856C112.76 52.856 112.152 53.04 111.72 53.408C111.288 53.776 111.072 54.296 111.072 54.968C111.072 55.576 111.232 56.096 111.552 56.528C111.888 56.944 112.368 57.24 112.992 57.416L115.08 57.992C116.472 58.344 117.536 58.976 118.272 59.888C119.008 60.784 119.376 61.896 119.376 63.224C119.376 64.216 119.136 65.096 118.656 65.864C118.176 66.616 117.504 67.2 116.64 67.616C115.776 68.032 114.76 68.24 113.592 68.24ZM127.934 68.24C127.246 68.24 126.694 68.04 126.278 67.64C125.878 67.24 125.678 66.696 125.678 66.008C125.678 65.32 125.878 64.776 126.278 64.376C126.694 63.96 127.246 63.752 127.934 63.752C128.622 63.752 129.166 63.96 129.566 64.376C129.982 64.776 130.19 65.32 130.19 66.008C130.19 66.696 129.982 67.24 129.566 67.64C129.166 68.04 128.622 68.24 127.934 68.24Z" fill="white"/>
</svg>
