<svg width="108" height="64" viewBox="0 0 108 64" fill="none" xmlns="http://www.w3.org/2000/svg">
<path fill-rule="evenodd" clip-rule="evenodd" d="M24.4125 35.0855L25.3988 35.652L25.4068 22.8899L27.0782 23.8556C29.9488 25.5115 31.1749 26.7555 31.1749 30.6907V37.7612L32.0146 37.2736L32.0227 30.5994C32.0227 26.4195 31.173 25.2432 28.5545 23.7308L18.165 17.7131L19.3413 17.0367L27.1335 21.5527C32.3301 24.5525 33.299 26.1177 33.299 30.4758L33.2897 36.5395L34.1772 36.0283L34.1847 30.6901C34.1847 25.8146 32.868 23.7805 29.2029 21.6595L20.2822 16.4908L21.3623 15.8722L29.2489 20.4372C32.5717 22.3551 35.1697 24.1507 35.1697 30.446L35.1616 36.9084L30.1606 39.7853L19.1059 33.3949L18.2631 33.8769L29.3129 40.2704L28.0446 41.0026L16.9924 34.6085L16.0098 35.175L27.0589 41.5691L25.3826 42.533C21.8797 44.5546 20.6729 44.5466 17.2079 42.5473L11.302 39.1238L11.2976 40.1045L17.6892 43.8C20.4586 45.4037 22.084 45.4211 24.7181 43.8988L35.1616 37.881V39.2332L25.6031 44.7397C22.379 46.5999 20.0556 46.6272 17.1309 44.9459C17.1309 44.9459 11.2386 41.4573 11.2945 41.5684C11.2634 41.5063 11.2945 42.6026 11.2945 42.6026L16.3284 45.5111C19.8941 47.5806 22.4989 47.6284 25.9776 45.6186L35.161 40.3288V41.5734L26.9788 46.2831C22.7349 48.7346 19.999 48.7675 15.603 46.2291L10.0331 43.0081L10.0405 37.2419C10.0405 37.2419 21.1338 30.9336 21.1039 30.8652C21.0729 30.7957 21.1039 29.8032 21.1108 29.8864C21.1189 29.9703 10.0443 36.2675 10.0443 36.2675L10.0486 34.7973L21.1108 28.4237V27.2903L10.0498 33.6632V30.8739C10.0498 28.0318 10.6914 26.6257 13.059 25.2581L20.0549 21.234L19.2059 20.7428L12.7081 24.4867C10.0362 26.0257 9.20889 26.84 9.20889 30.6286V42.5212L8.0251 41.8386V30.446C8.0251 26.7977 8.98281 25.1599 11.6168 23.6463L17.9376 20.0055L17.0501 19.4894L11.6392 22.606C8.5375 24.3941 7.08602 25.5562 7.08602 30.7199V41.2939L6.00098 40.6654L6.00905 31.2087C6.00905 26.2804 6.41338 24.4972 10.1803 22.316L17.3166 18.1982L22.3126 21.0968L22.3051 33.8607L23.1448 34.3514L23.1529 21.5794L24.4212 22.3141L24.4125 35.0855ZM13.7857 26.2127C11.6032 27.4642 11.31 28.707 11.31 30.782V31.6925L21.112 26.0512V21.9998L13.7857 26.2127ZM18.7432 42.0585C20.9176 43.323 22.1405 42.9553 23.9373 41.9175L24.7261 41.4629L14.9397 35.7936L11.4305 37.8202L18.7432 42.0585ZM29.9836 29.8398C29.9905 27.3244 29.0613 26.4493 27.2639 25.4109L26.4757 24.9568L26.4602 36.2656L29.9687 38.2916L29.9836 29.8398ZM46.2387 27.2654C46.2387 28.0455 46.099 29.3094 46.9654 29.6392V29.6908H43.6929V29.6392C44.5748 29.3268 44.4717 28.0455 44.4717 27.2654V20.739C44.4717 19.9422 44.5754 18.6789 43.6929 18.3503V18.2982H49.233C49.5267 18.2982 49.8211 18.3323 50.0466 18.2118H50.0994V20.2198H50.0466C49.51 19.6142 48.8001 19.5441 48.0038 19.5441C47.3983 19.5441 46.7909 19.5614 46.2387 19.6658V22.8861H48.315C48.5752 22.8861 48.8522 22.8861 49.0591 22.7824H49.1125V24.6171H49.0591C48.7839 24.0985 48.0566 24.1333 47.5194 24.1333H46.2393V27.2654H46.2387ZM54.2681 28.6933C55.2091 28.7486 56.027 28.4306 56.7195 27.8486H56.7605L56.0413 29.6908H50.3472V29.6485C51.0546 29.3989 50.9714 28.3747 50.9714 27.7517V22.5296C50.9714 21.8924 51.0546 20.8813 50.3472 20.6179V20.5763H52.9936V20.6179C52.2875 20.8813 52.3844 21.9061 52.3844 22.5296V28.5685L54.2681 28.6933Z" fill="#125FB7"/>
<path fill-rule="evenodd" clip-rule="evenodd" d="M65.6254 25.0358C65.6254 27.8617 63.2852 29.9119 60.5282 29.9119C57.7855 29.9119 55.4731 27.9456 55.4731 25.106C55.4731 22.4738 57.7587 20.2727 60.6661 20.341C63.574 20.3267 65.6254 22.544 65.6254 25.0358ZM57.0513 24.9811C57.0513 26.9195 58.4221 28.9144 60.5971 28.9144C62.7032 28.9144 64.046 27.3773 64.046 25.3134C64.046 23.2912 62.7591 21.3385 60.5692 21.3385C58.4221 21.3385 57.0513 22.8893 57.0513 24.9811ZM68.9638 20.5764C70.8196 20.5764 71.8301 21.5465 71.8301 22.8061C71.8301 24.0253 70.7637 24.9811 69.6284 25.2438L71.6227 27.7512C72.2052 28.4716 73.0773 29.1908 73.8654 29.6902H72.5916C71.8574 29.6902 71.4003 29.5094 70.9842 28.9977L69.2954 26.9065L68.0204 24.9526C69.1278 24.7867 70.4171 24.2743 70.4171 22.9726C70.4171 21.9751 69.5582 21.3931 68.6303 21.4347C68.3139 21.4506 67.9989 21.4877 67.6875 21.5459V27.7505C67.6875 28.3878 67.6048 29.3976 68.311 29.6473V29.6896H65.6652V29.6473C66.3714 29.3976 66.2739 28.3735 66.2739 27.7505V22.5297C66.2739 21.8925 66.3708 20.8814 65.6652 20.618V20.5764H68.9638Z" fill="#125FB7"/>
<path fill-rule="evenodd" clip-rule="evenodd" d="M73.7283 22.5296C73.7283 21.8924 73.8252 20.8813 73.1196 20.6179V20.5763H75.7518V20.6179C75.0593 20.8813 75.1419 21.906 75.1419 22.5296V27.7511C75.1419 28.3741 75.0593 29.3852 75.7518 29.6479V29.6902H73.1196V29.6479C73.8109 29.3983 73.7283 28.3741 73.7283 27.7511V22.5296ZM76.6226 22.4731C76.6226 21.8371 76.7194 20.826 76.0139 20.6179V20.5763H79.4081C82.5657 20.5763 84.5321 22.2942 84.5321 25.05C84.5321 27.7785 82.4409 29.6902 79.338 29.6902H76.0139V29.6479C76.7064 29.1778 76.6226 28.5126 76.6226 27.6952V22.4731ZM78.0355 28.5958C78.3681 28.6631 78.7068 28.6956 79.046 28.6927C81.1105 28.6927 82.9521 27.6114 82.9521 25.2158C82.9521 22.7923 81.5944 21.5731 79.2827 21.5731C78.8665 21.5731 78.4517 21.6278 78.0355 21.7259V28.5958Z" fill="#125FB7"/>
<path fill-rule="evenodd" clip-rule="evenodd" d="M86.2625 26.2684L85.5432 28.2217C85.2519 28.9975 85.1551 29.3981 85.8196 29.6478V29.69H83.2707V29.6478C84.0737 29.2472 84.3091 28.4708 84.6147 27.6808L86.927 21.9053C87.1208 21.406 87.3841 20.8252 86.7208 20.6172V20.5756H88.9077L91.7889 27.6808C92.1081 28.4708 92.3566 29.2465 93.1466 29.6478V29.69H90.307V29.6478C90.9877 29.3434 90.8771 29.1906 90.5008 28.2217L89.7536 26.2684H86.2625ZM87.9947 21.7531L86.6227 25.2436H89.3511L87.9947 21.7531ZM46.1855 38.2485V41.3825C46.1855 42.162 46.0818 43.4265 46.9482 43.7545V43.806H43.6577V43.7545C44.5235 43.4265 44.4204 42.162 44.4204 41.3825V34.8388C44.4204 34.0593 44.5409 32.7954 43.6577 32.4662V32.4147H46.9482V32.4662C46.0818 32.7954 46.1855 34.0593 46.1855 34.8562V37.0033H52.4355V34.8562C52.4355 34.0599 52.5573 32.796 51.6741 32.4662V32.4147H54.9814V32.4662C54.0982 32.7954 54.2025 34.0593 54.2025 34.8388V41.3825C54.2025 42.162 54.0982 43.4265 54.9814 43.7545V43.806H51.6741V43.7545C52.5573 43.4265 52.4355 42.162 52.4355 41.3825V38.2485H46.1855ZM65.1579 39.1535C65.1579 41.9794 62.8176 44.0296 60.0619 44.0296C57.3179 44.0296 55.0056 42.0626 55.0056 39.223C55.0056 36.5915 57.2912 34.3904 60.1985 34.4581C63.1089 34.4432 65.1579 36.6604 65.1579 39.1535ZM56.585 39.0982C56.585 41.0372 57.9558 43.0315 60.1296 43.0315C62.2357 43.0315 63.5797 41.4937 63.5797 39.4305C63.5797 37.4082 62.2916 35.4555 60.1016 35.4555C57.9558 35.4549 56.585 37.0058 56.585 39.0982ZM71.0036 36.3412C70.4626 35.7878 69.6036 35.4679 68.8285 35.4679C68.0391 35.4679 67.0417 35.7735 67.0417 36.73C67.0417 38.6262 71.8066 38.5995 71.8066 41.1614C71.8066 42.6433 70.2552 44.029 68.0944 44.029C67.2491 44.029 66.4044 43.9048 65.615 43.6129L65.2138 41.8819C66.0312 42.5887 67.1671 43.0315 68.2478 43.0315C69.0366 43.0315 70.2278 42.5607 70.2278 41.5912C70.2278 39.4305 65.4629 39.8186 65.4629 36.8815C65.4629 35.1369 67.2497 34.4723 68.9397 34.4723C69.6322 34.4723 70.3384 34.5692 71.0042 34.7767V36.3412H71.0036ZM75.2276 34.6935C77.0275 34.6935 78.3995 35.5655 78.3995 37.1169C78.3995 38.7094 76.917 39.7205 75.3537 39.7205C75.0065 39.7205 74.6599 39.6795 74.3419 39.5267C75.5319 39.4572 76.8201 38.7231 76.8201 37.3933C76.8201 36.1741 75.9611 35.6897 74.8537 35.6897C74.5214 35.6897 74.2009 35.717 73.8842 35.7729V42.0198C73.8842 42.7949 73.8687 43.3501 74.6034 43.765V43.806H71.847V43.765C72.5544 43.516 72.4706 42.4912 72.4706 41.8676V36.6461C72.4706 36.0226 72.5544 35.0114 71.8619 34.7344V34.6935H75.2276ZM79.0777 36.6461C79.0777 36.0095 79.1746 34.9978 78.4691 34.7344V34.6935H81.1V34.7344C80.4087 34.9978 80.4913 36.0226 80.4913 36.6461V41.8676C80.4913 42.4912 80.4087 43.5017 81.1 43.765V43.806H78.4691V43.765C79.1616 43.516 79.0777 42.4912 79.0777 41.8676V36.6461ZM85.6426 42.0067C85.6426 42.7955 85.6283 43.3359 86.3631 43.765V43.806H83.6216V43.765C84.3141 43.5017 84.2303 42.4912 84.2303 41.8676V35.6903H83.0111C82.4154 35.6903 81.7919 35.8425 81.3639 36.2449H81.3217L81.8068 34.5972H81.8478C82.0142 34.6655 82.1937 34.6655 82.3744 34.6935H87.8866C88.122 34.6935 88.3437 34.6798 88.5232 34.5972H88.5642L88.1214 36.2449H88.0804C87.9009 35.7605 87.3463 35.6903 86.8904 35.6903H85.642V42.0067H85.6426Z" fill="#125FB7"/>
<path fill-rule="evenodd" clip-rule="evenodd" d="M89.2579 40.3867L88.5375 42.3394C88.2449 43.1158 88.148 43.517 88.8126 43.7661V43.8071H86.2637V43.7661C87.068 43.3648 87.3046 42.5891 87.6077 41.7991L89.9213 36.0235C90.115 35.5247 90.3784 34.944 89.7138 34.7353V34.6943H91.9019L94.7844 41.7991C95.1024 42.5891 95.352 43.3648 96.1408 43.7661V43.8071H93.3012V43.7661C93.9807 43.4617 93.8701 43.3102 93.495 42.3394L92.7478 40.3867H89.2579ZM90.9895 35.8707L89.6188 39.3606H92.3472L90.9895 35.8707Z" fill="#125FB7"/>
<path fill-rule="evenodd" clip-rule="evenodd" d="M99.5074 42.8102C100.448 42.8661 101.266 42.5469 101.959 41.9655H102L101.279 43.8071H95.5864V43.7661C96.2939 43.517 96.21 42.4922 96.21 41.8686V36.6471C96.21 36.0104 96.2939 34.9987 95.5864 34.7353V34.6943H98.2323V34.7353C97.5261 34.9987 97.6224 36.0235 97.6224 36.6471V42.6866L99.5074 42.8102Z" fill="#125FB7"/>
</svg>
