<svg width="108" height="64" viewBox="0 0 108 64" fill="none" xmlns="http://www.w3.org/2000/svg">
<path fill-rule="evenodd" clip-rule="evenodd" d="M23.4439 20.4406C22.9004 22.0123 23.5879 23.6769 24.9802 24.1588C26.3726 24.6406 27.9442 23.7582 28.4871 22.1859C29.0301 20.6143 28.3426 18.9513 26.9485 18.4678C25.5556 17.987 23.9868 18.8695 23.4439 20.4406Z" fill="#85DA78"/>
<path fill-rule="evenodd" clip-rule="evenodd" d="M22.6739 31.5417C23.735 31.9373 27.8095 32.1899 28.5782 30.1734C29.9005 26.7198 34.5509 21.95 34.8664 21.1286C35.1421 20.4154 34.1638 19.6354 33.4741 20.3229C32.2005 21.5982 30.1157 23.7474 27.043 24.886C25.3392 25.5168 24.0953 24.6871 23.6376 24.3184C21.0524 22.2374 22.155 16.8715 22.0559 15.9442C22.0043 15.4473 21.7673 15.2388 21.5191 15.1615H20.9151C20.9136 15.1617 20.912 15.162 20.9106 15.1626L20.8977 15.1632C20.8084 15.4228 20.7265 15.6849 20.6523 15.9493C20.0293 18.4174 18.3411 26.5287 22.1483 33.3262C22.9966 34.8413 23.2952 35.1505 21.7426 36.502C20.1873 37.854 17.3152 39.2115 13.0704 38.4238C12.2933 38.2803 12.5824 37.2018 12.709 36.3619C13.3119 32.3127 13.1057 30.8346 12.4832 29.6832C11.8243 28.4696 8.1096 27.6269 5.34735 27.4067C4.96578 28.8123 4.76988 30.2618 4.76465 31.7182V31.7893C4.76465 37.8495 8.00426 43.1521 12.8446 46.0606C13.1169 44.299 13.4004 41.9928 14.0162 40.2963C14.1131 40.0301 14.3529 39.3527 14.9356 39.2351C15.269 39.1667 15.7453 39.174 16.3117 39.2558C16.8076 39.327 16.979 39.6777 16.821 40.3075C16.2815 42.4573 15.3648 45.0879 14.6421 46.9963C16.237 47.7049 17.934 48.1568 19.6701 48.3354C19.5889 48.021 19.5233 47.6344 19.4746 47.1683C19.2953 45.3877 18.5736 42.3038 18.6689 40.0038C18.6823 39.7209 18.7434 38.9622 19.223 38.7146C19.506 38.57 19.9783 38.3173 20.5436 38.161C20.8776 38.0669 21.3062 38.361 21.3454 39.0093C21.5241 41.9161 21.3331 45.967 21.1812 47.8574C21.1661 48.0535 21.1409 48.234 21.105 48.3998L21.4087 48.4099C21.8939 48.4833 22.4212 48.2821 22.5691 47.7028C23.2885 44.8968 23.3462 38.0097 24.8607 37.3273H24.8568C24.966 37.2769 25.0775 37.2617 25.1918 37.2757C25.1918 37.2769 25.1918 37.2757 25.1935 37.2769H25.1918C26.852 37.4959 29.0825 44.2021 30.6283 46.6478C31.2699 47.6602 32.8841 46.7604 32.5244 45.8101C32.1647 44.8587 29.8047 38.6938 29.2108 36.0246C28.6186 33.3565 28.6158 31.6246 27.5176 31.9462C26.1505 32.3485 23.5552 32.7077 22.4738 31.7305C22.424 31.6846 22.2732 31.3915 22.6739 31.5417Z" fill="#85DA78"/>
<path d="M38.0137 40.8224H103.235V41.1484H38.0137V40.8224Z" fill="#2CC214"/>
<path fill-rule="evenodd" clip-rule="evenodd" d="M95.7631 35.1375H95.7446C94.6515 34.3419 93.1129 33.9766 93.1292 33.0986C93.1382 32.4056 93.7354 32.1125 94.2784 32.1125C95.0914 32.1125 95.7295 32.4689 96.3106 33.0504V32.0352C95.7808 31.6786 95.1717 31.4572 94.5367 31.3903L94.414 31.3892C92.3991 31.3892 91.5862 32.419 91.5862 33.5586C91.5862 34.8445 92.8883 35.4586 93.9332 36.0273C94.6196 36.4094 95.1972 36.7725 95.2331 37.3036C95.2779 37.9379 95.0207 38.7212 93.8441 38.7015C92.8933 38.6864 92.658 38.1435 92.2215 37.925C92.0159 37.823 91.7828 37.8617 91.692 38.018C91.4797 38.3805 91.8069 38.6685 91.9319 38.7733C92.2591 39.0501 93.011 39.426 93.7606 39.426C95.469 39.426 96.8249 38.6007 96.8249 36.9865C96.8249 36.1377 96.3615 35.5729 95.7631 35.1375ZM60.0511 38.3755V27.8016H58.4218V38.3867C58.4218 38.6027 58.5076 38.8099 58.6604 38.9627C58.8132 39.1155 59.0204 39.2013 59.2365 39.2013C59.4525 39.2013 59.6597 39.1155 59.8125 38.9627C59.9653 38.8099 60.0511 38.6027 60.0511 38.3867V38.3755ZM76.7272 34.7857C76.7272 34.1458 77.0499 32.14 78.2747 32.14C79.3863 32.14 79.6614 33.7519 79.6614 34.7857H76.7272ZM81.144 38.8299C81.1473 38.6018 80.9198 38.5211 80.7786 38.5604C80.4156 38.6658 80.0395 38.7194 79.6614 38.7195C77.3721 38.7195 76.7277 37.1815 76.7277 35.458H81.2891C81.2891 34.0808 80.8722 31.5825 78.3397 31.5825C76.1798 31.5825 74.9712 32.7809 74.9712 35.2574C74.9712 37.9799 76.4364 39.4568 78.9196 39.4568C79.8256 39.4568 80.5624 39.2377 80.9551 39.0988C81.0112 39.08 81.0598 39.0438 81.0938 38.9954C81.1278 38.947 81.1453 38.889 81.144 38.8299ZM90.5871 28.539C90.0661 28.539 89.6408 28.8886 89.6408 29.3901C89.6408 29.933 90.0117 30.1571 90.284 30.1851C90.4611 30.1974 90.572 30.3106 90.572 30.477C90.572 31.0026 90.3266 31.2609 90.0554 31.5914C89.9294 31.7506 89.982 31.922 90.1585 31.9422C90.3344 31.9646 90.4913 31.8357 90.6146 31.6923C90.8214 31.4536 91.6007 30.7841 91.6007 29.6394C91.6002 29.0124 91.1889 28.539 90.5871 28.539ZM53.1287 38.385V33.6729C53.1287 32.4252 52.82 31.49 51.1621 31.49C49.6465 31.49 48.9024 32.7709 48.5343 33.4438H48.5007V27.8016H46.8741V38.3867C46.8741 38.6026 46.9599 38.8097 47.1126 38.9623C47.2653 39.115 47.4723 39.2008 47.6883 39.2008C47.9042 39.2008 48.1112 39.115 48.2639 38.9623C48.4166 38.8097 48.5024 38.6026 48.5024 38.3867L48.5012 38.3755V35.2317C48.5012 34.1974 49.5327 32.4913 50.4527 32.4913C51.2584 32.4913 51.5005 33.0157 51.5005 35.0019V38.3867C51.5005 38.8355 51.8624 39.2013 52.314 39.2013C52.7634 39.2013 53.1298 38.8355 53.1298 38.3867C53.1287 38.3867 53.1287 38.3855 53.1287 38.385ZM56.584 31.4643H54.9547V38.3626C54.9547 38.5786 55.0405 38.7858 55.1933 38.9386C55.3461 39.0914 55.5533 39.1772 55.7694 39.1772C55.9854 39.1772 56.1926 39.0914 56.3454 38.9386C56.4982 38.7858 56.584 38.5786 56.584 38.3626V31.4643ZM55.7688 30.1302C56.3179 30.1302 56.7645 29.6853 56.7645 29.1374C56.7645 28.8735 56.6596 28.6204 56.473 28.4337C56.2864 28.2471 56.0333 28.1423 55.7694 28.1423C55.5055 28.1423 55.2524 28.2471 55.0657 28.4337C54.8791 28.6204 54.7743 28.8735 54.7743 29.1374C54.7743 29.6853 55.2208 30.1302 55.7688 30.1302ZM68.4477 38.3777V27.8016H66.8195V32.6717H66.7864C66.4811 32.1954 65.9645 31.49 64.7716 31.49C62.5304 31.49 61.7242 33.2141 61.7242 35.4278C61.7242 37.3473 62.2419 39.3644 64.4489 39.3644C65.8844 39.3644 66.4318 38.5587 66.7864 38.0186H66.8195V38.3867C66.8195 38.6027 66.9053 38.8099 67.0581 38.9627C67.2109 39.1155 67.4181 39.2013 67.6341 39.2013C67.8502 39.2013 68.0574 39.1155 68.2102 38.9627C68.363 38.8099 68.4488 38.6027 68.4488 38.3867L68.4477 38.3777ZM65.1924 38.4292C63.8538 38.4292 63.4818 37.1176 63.4818 35.4283C63.4818 33.8864 63.8538 32.2784 65.1924 32.2784C66.4474 32.2784 66.8195 33.427 66.8195 35.4283C66.8195 37.0022 66.5449 38.4292 65.1924 38.4292ZM74.1229 31.49C72.8001 31.49 72.2045 32.6554 71.931 33.3933H71.8963V31.4844H70.2681V38.3867C70.2681 38.6026 70.3539 38.8097 70.5065 38.9623C70.6592 39.115 70.8663 39.2008 71.0822 39.2008C71.2981 39.2008 71.5052 39.115 71.6579 38.9623C71.8105 38.8097 71.8963 38.6026 71.8963 38.3867V35.5746C71.8963 33.8853 72.6219 32.8857 73.1222 32.8857C73.6562 32.8857 73.5436 33.2622 74.1235 33.2622C74.5908 33.2622 74.9914 32.9177 74.9914 32.3434C74.9908 31.8027 74.4927 31.49 74.1229 31.49ZM88.8951 38.4685V33.7682C88.8951 32.5204 88.5875 31.5858 86.9452 31.5858C85.4145 31.5858 84.671 32.8504 84.3023 33.5217H84.2676V31.5763H82.6405V38.4802C82.6483 38.6908 82.7374 38.8901 82.8892 39.0363C83.0409 39.1825 83.2434 39.2641 83.454 39.2641C83.6647 39.2641 83.8672 39.1825 84.0189 39.0363C84.1706 38.8901 84.2598 38.6908 84.2676 38.4802V35.309C84.2676 34.2926 85.2997 32.586 86.2353 32.586C87.0265 32.586 87.2685 33.1115 87.2685 35.0961V38.4802C87.2685 38.9285 87.6305 39.2932 88.0826 39.2932C88.5292 39.2932 88.8956 38.9285 88.8956 38.4802L88.8951 38.4685ZM54.0622 25.2904V21.2485C54.0622 20.1755 53.7983 19.3692 52.3835 19.3692C51.0657 19.3692 50.4286 20.4568 50.1104 21.0356H50.0813V19.3636H48.6805V25.3011C48.6805 25.6871 48.9954 26.0009 49.3831 26.0009C49.7681 26.0009 50.0813 25.6877 50.0813 25.3011V22.5736C50.0813 21.6989 50.9705 20.231 51.7756 20.231C52.4541 20.231 52.6609 20.6826 52.6609 22.3887V25.3011C52.6609 25.4869 52.7347 25.6651 52.8661 25.7965C52.9975 25.9279 53.1757 26.0017 53.3615 26.0017C53.5473 26.0017 53.7255 25.9279 53.8569 25.7965C53.9883 25.6651 54.0622 25.4869 54.0622 25.3011V25.2904ZM90.6353 19.3648H89.2335V25.2994C89.2335 25.4853 89.3073 25.6636 89.4388 25.795C89.5702 25.9264 89.7485 26.0003 89.9344 26.0003C90.1203 26.0003 90.2986 25.9264 90.43 25.795C90.5615 25.6636 90.6353 25.4853 90.6353 25.2994V19.3648ZM89.9361 18.2156C90.4079 18.2156 90.7877 17.8352 90.7877 17.3634C90.7877 16.8911 90.4079 16.5078 89.9361 16.5078C89.7096 16.5078 89.4924 16.5978 89.3323 16.7579C89.1722 16.9181 89.0822 17.1353 89.0822 17.3617C89.0822 17.5882 89.1722 17.8054 89.3323 17.9655C89.4924 18.1256 89.7096 18.2156 89.9361 18.2156ZM62.7669 19.3648H61.3684V25.2994C61.3684 25.4848 61.4421 25.6627 61.5732 25.7938C61.7043 25.9249 61.8822 25.9986 62.0676 25.9986C62.2531 25.9986 62.4309 25.9249 62.5621 25.7938C62.6932 25.6627 62.7669 25.4848 62.7669 25.2994V19.3648ZM62.0699 18.2156C62.5394 18.2156 62.9243 17.8352 62.9243 17.3634C62.9239 17.1368 62.8337 16.9196 62.6736 16.7593C62.5135 16.599 62.2965 16.5086 62.0699 16.5078C61.8427 16.5077 61.6248 16.5977 61.4639 16.7581C61.3031 16.9185 61.2125 17.1362 61.2121 17.3634C61.2121 17.8357 61.5975 18.2156 62.0699 18.2156ZM46.8685 19.3648H45.4672V25.2994C45.4724 25.4818 45.5485 25.655 45.6793 25.7821C45.8102 25.9093 45.9854 25.9805 46.1679 25.9805C46.3504 25.9805 46.5256 25.9093 46.6565 25.7821C46.7873 25.655 46.8634 25.4818 46.8685 25.2994V19.3648ZM46.1676 18.2156C46.3941 18.2156 46.6113 18.1256 46.7714 17.9655C46.9315 17.8054 47.0215 17.5882 47.0215 17.3617C47.0215 17.1353 46.9315 16.9181 46.7714 16.7579C46.6113 16.5978 46.3941 16.5078 46.1676 16.5078C45.9412 16.5078 45.724 16.5978 45.5638 16.7579C45.4037 16.9181 45.3137 17.1353 45.3137 17.3617C45.3137 17.5882 45.4037 17.8054 45.5638 17.9655C45.724 18.1256 45.9412 18.2156 46.1676 18.2156ZM70.0081 25.2904V21.2485C70.0081 20.1755 69.7442 19.3692 68.3317 19.3692C67.0139 19.3692 66.3763 20.4568 66.0564 21.0356H66.0289V19.3636H64.6282V25.3011C64.6282 25.4868 64.702 25.6649 64.8333 25.7963C64.9647 25.9276 65.1428 26.0014 65.3285 26.0014C65.5143 26.0014 65.6924 25.9276 65.8238 25.7963C65.9551 25.6649 66.0289 25.4868 66.0289 25.3011V22.5736C66.0289 21.6989 66.9153 20.231 67.721 20.231C68.4018 20.231 68.6085 20.6826 68.6085 22.3887V25.3011C68.6157 25.4818 68.6926 25.6527 68.8231 25.7781C68.9535 25.9034 69.1274 25.9734 69.3083 25.9734C69.4892 25.9734 69.6631 25.9034 69.7935 25.7781C69.924 25.6527 70.0009 25.4818 70.0081 25.3011V25.2904ZM77.186 25.2904V21.2485C77.186 20.1755 76.9255 19.3692 75.5119 19.3692C74.193 19.3692 73.5553 20.4568 73.2348 21.0356H73.2085V19.3636H71.8078V25.3011C71.8078 25.6871 72.1199 26.0009 72.5081 26.0009C72.8975 26.0009 73.2085 25.6877 73.2085 25.3011V22.5736C73.2085 21.6989 74.096 20.231 74.9023 20.231C75.5786 20.231 75.7876 20.6826 75.7876 22.3887V25.3011C75.7876 25.4865 75.8612 25.6644 75.9924 25.7955C76.1235 25.9266 76.3013 26.0003 76.4868 26.0003C76.6722 26.0003 76.8501 25.9266 76.9812 25.7955C77.1124 25.6644 77.186 25.4865 77.186 25.3011V25.2904ZM60.1934 25.561C60.2119 25.7314 60.0545 25.8288 59.9833 25.8524C59.5137 26.0148 59.0207 26.0998 58.5238 26.104C56.5398 26.104 55.3861 24.8635 55.3861 22.4497C55.3861 20.5122 56.2395 19.3121 58.0386 19.3121C59.7206 19.3121 60.2865 20.2388 60.2865 21.5757H58.8947C58.8947 20.7991 58.8168 19.8847 57.9887 19.8847C57.225 19.8847 56.8311 20.8131 56.8311 21.9852C56.8311 23.5681 57.4732 25.3817 59.0768 25.3817C59.3267 25.3799 59.575 25.3422 59.8141 25.2697C59.9402 25.2327 60.1638 25.282 60.1934 25.561ZM88.1773 25.6641C88.184 25.9034 87.9812 26.021 87.8697 26.035C87.6663 26.0591 87.4616 26.0711 87.2568 26.0709C86.009 26.0709 85.2845 25.6888 85.2845 24.4802V19.6752H84.29V18.9927H85.2845V17.5208L86.6141 16.7179V18.9927H88.3224V19.6752H86.6141V23.9564C86.6141 24.8752 86.7049 25.3223 87.5604 25.3223C87.6294 25.3223 87.7016 25.3201 87.7717 25.3128C87.9157 25.2999 88.1717 25.3969 88.1773 25.6641ZM83.3756 21.5079C83.3711 20.3772 83.1128 19.3115 81.0963 19.3115C79.1252 19.3115 78.7588 20.2343 78.6921 21.1084H80.085C80.1377 20.417 80.2811 19.8281 81.0963 19.8281C81.976 19.8281 81.976 20.8854 81.976 21.5247L81.9782 21.6648C81.1423 21.7124 78.4882 21.8289 78.4882 24.1525C78.4882 25.1996 79.2115 26.0384 80.1976 26.0384C81.1966 26.0384 81.7485 25.2624 81.9586 24.8175H81.9861L81.9894 24.8058V25.3991C81.9894 25.7616 82.3015 26.0558 82.6887 26.0558C83.0747 26.0558 83.3902 25.7622 83.3902 25.3991V21.5073H83.3756V21.5079ZM81.9855 23.2179C81.9855 24.5015 81.154 25.0405 80.6952 25.0405C80.2621 25.0405 79.9337 24.5968 79.9337 23.9149C79.9337 22.5203 81.4319 22.378 81.9855 22.3304V23.2179ZM45.0672 37.5675C41.0533 39.2148 39.5203 36.4531 39.1897 35.1667H39.1808C39.0171 34.4663 38.9544 33.6953 38.9544 32.9311C38.9544 31.4116 39.2973 28.7356 41.4583 28.7356C43.0204 28.7356 43.3633 30.035 43.3633 30.9213H45.5586C45.5586 29.1318 44.2559 27.7859 41.613 27.7859C37.9924 27.7859 36.9452 30.5728 36.9452 33.2157C36.9452 35.9864 38.0994 38.5155 40.8936 39.0954C43.0317 39.5397 44.8263 38.6724 45.4773 38.1127C45.5558 38.0432 45.7054 37.8701 45.586 37.6633C45.4841 37.4863 45.2504 37.4936 45.0672 37.5675ZM43.8939 24.9604C40.4067 26.3914 39.0765 23.9922 38.7891 22.8744H38.7796C38.6373 22.266 38.5829 21.5964 38.5829 20.9319C38.5829 19.6124 38.8816 17.2883 40.7602 17.2883C42.1156 17.2883 42.4148 18.4162 42.4148 19.186H44.3226C44.3226 17.6323 43.1897 16.463 40.8936 16.463C37.7486 16.463 36.8398 18.8835 36.8398 21.1807C36.8398 23.5866 37.8428 25.784 40.2711 26.2883C42.1268 26.6726 43.6855 25.9196 44.2514 25.4344C44.3214 25.3745 44.4492 25.2237 44.3455 25.0444C44.2559 24.8892 44.0531 24.8954 43.8939 24.9604Z" fill="#2CC214"/>
<path fill-rule="evenodd" clip-rule="evenodd" d="M5.80176 25.9942C8.82454 26.0519 11.9913 26.2435 13.7523 26.4939C14.3462 26.578 15.2511 27.0027 15.9498 26.625C16.825 26.1555 16.7499 25.5498 16.858 24.9559C17.439 21.7578 18.4055 17.9433 19.2096 15.8433C19.251 15.7352 19.3407 15.4926 19.4247 15.2719C13.1433 16.0148 7.93535 20.2568 5.80176 25.9942ZM16.509 22.796C16.4014 21.393 15.6226 20.6647 14.7474 20.3027C14.567 20.2288 14.3849 20.3352 14.5978 20.4742C14.8376 20.631 16.3106 21.7774 15.9845 23.6314C15.4517 26.1241 13.2755 25.5896 12.639 25.3392C12.611 25.3274 12.5852 25.31 12.5572 25.2983C11.9532 24.9459 11.5789 24.4842 11.5089 24.3497C11.4624 24.2651 11.2938 24.3351 11.3728 24.5122C11.5376 24.8927 11.7835 25.2327 12.0933 25.5084C10.7856 25.7846 10.1356 25.1033 10.1356 25.1033C10.325 24.8528 10.4421 24.2881 10.4191 23.9581C10.2208 21.2619 10.511 20.482 11.6053 19.6393C12.6009 18.8734 14.1815 19.097 15.0006 19.5962C15.9279 20.161 17.0575 19.9352 17.0575 19.9352C17.2424 21.4479 16.6104 22.6212 16.509 22.796Z" fill="#85DA78"/>
<path fill-rule="evenodd" clip-rule="evenodd" d="M40.7882 42.7342H40.7495V44.7293H38.682V42.7342H38.0198V47.4131H38.682V45.2386H40.7495V47.4131H41.4129V42.7342H40.7882ZM43.4658 44.0889C42.5156 44.0889 41.9682 44.7097 41.9682 45.7933C41.9682 46.8837 42.5005 47.486 43.4658 47.486C43.9802 47.486 44.3724 47.3201 44.6313 46.9923C44.8582 46.706 44.9786 46.2914 44.9786 45.7933C44.9786 44.7097 44.4279 44.0889 43.4658 44.0889ZM43.4658 47.0304C42.928 47.0304 42.6316 46.5889 42.6316 45.7866C42.6316 44.986 42.928 44.5439 43.4658 44.5439C44.0149 44.5439 44.3164 44.986 44.3164 45.7866C44.3164 46.5889 44.0155 47.0304 43.4658 47.0304ZM46.8074 45.567L46.7632 45.5479C46.766 45.5485 46.464 45.3877 46.4623 45.3866L46.3172 45.3221C46.0707 45.2157 45.8365 45.1143 45.8365 44.9215C45.8365 44.7058 46.13 44.5445 46.5217 44.5445C46.868 44.5445 47.2114 44.6464 47.3453 44.6896L47.3958 44.7053V44.2032L47.3638 44.1965L47.2994 44.1836C47.042 44.1231 46.7788 44.0916 46.5144 44.0895C45.7227 44.0895 45.2493 44.4178 45.2493 44.9675C45.2493 45.4583 45.6544 45.6533 45.9776 45.8101L46.083 45.8611C46.0835 45.8622 46.4074 46.0163 46.4074 46.0163C46.4399 46.032 46.4791 46.0499 46.5206 46.0684C46.7363 46.1676 47.0338 46.3038 47.0338 46.5553C47.0338 46.9694 46.5105 47.031 46.1984 47.031C45.9496 47.031 45.6482 46.9778 45.3042 46.8719L45.2353 46.8512V47.3436L45.2616 47.3521C45.4386 47.4019 45.8006 47.4865 46.2499 47.4865C47.1335 47.4865 47.621 47.1324 47.621 46.4892C47.6199 45.9379 47.1694 45.7328 46.8074 45.567ZM49.6818 44.0889C49.1809 44.0889 48.8979 44.3685 48.7713 44.5994V44.1623H48.183V48.8402H48.7713V46.9946C48.8912 47.2176 49.1456 47.486 49.6885 47.486C50.6169 47.486 50.9452 46.5945 50.9452 45.762C50.9447 44.6515 50.52 44.0889 49.6818 44.0889ZM49.5753 44.5445C50.1591 44.5445 50.283 45.1591 50.283 45.6751C50.283 46.2937 50.1569 47.031 49.5591 47.031C49.015 47.031 48.7713 46.3996 48.7713 45.7748C48.7707 45.2807 48.9848 44.5445 49.5753 44.5445ZM53.7613 44.1623V43.1084L53.7064 43.1398L53.1948 43.4267L53.1735 43.4373V44.1629H52.6508V44.619H53.1735V46.6282C53.1735 47.2288 53.4834 47.486 54.2061 47.486C54.3473 47.486 54.4986 47.4748 54.6628 47.4523L54.6958 47.4467V46.957L54.6465 46.9716L54.6096 46.9834C54.5165 47.0103 54.451 47.0299 54.3109 47.0299C53.9411 47.0299 53.7618 46.868 53.7618 46.5346V44.6179H54.7267V44.1618H53.7613V44.1623ZM56.4277 44.0889C55.4634 44.0889 55.1121 44.5663 55.1049 45.0134V45.0515H55.7464L55.752 45.0185C55.789 44.7725 55.8999 44.5433 56.4434 44.5433C56.7902 44.5433 56.997 44.6823 57.0625 44.9546C57.0799 45.0498 57.081 45.358 57.081 45.5199C56.9766 45.5328 56.8713 45.538 56.7661 45.5356C56.0658 45.5356 55.0231 45.8085 55.0231 46.5598C55.0231 47.1386 55.3962 47.4843 56.0232 47.4843C56.5936 47.4843 56.9477 47.2316 57.0989 47.0489V47.4114H57.671V45.1462C57.671 44.6924 57.5416 44.0889 56.4277 44.0889ZM56.1521 47.0304C55.9246 47.0304 55.6836 46.8988 55.6836 46.6085C55.6836 46.0864 56.5045 45.9721 56.8194 45.9721H57.081C57.0788 46.2909 57.0418 46.3715 56.9628 46.5335L56.951 46.5592C56.8171 46.8327 56.4793 47.0304 56.1521 47.0304ZM58.4896 42.7342H58.4521V47.4131H59.0409V42.7342H58.4896ZM66.1858 42.7342H66.1606L66.1505 42.7605L64.7699 46.5985L63.3866 42.7605L63.3776 42.7342H62.4335V47.4131H63.0364V43.4956L64.506 47.3879L64.5139 47.4131H65.0182L65.026 47.3879L66.4968 43.4934V47.4131H67.0974V42.7342H66.1858ZM69.0988 44.0889C68.1732 44.0889 67.6622 44.6548 67.6622 45.6807C67.6622 46.845 68.297 47.486 69.4462 47.486C69.7667 47.486 70.0479 47.454 70.2765 47.3924L70.304 47.3845V46.9352L70.2592 46.9442L70.1662 46.9655C70.0328 46.9968 69.8793 47.0304 69.5599 47.0304C68.585 47.0304 68.3267 46.1782 68.3267 45.6745V45.5244H70.3875V45.3333C70.3869 44.5545 69.9056 44.0889 69.0988 44.0889ZM69.7218 45.0694H68.3738C68.4253 44.8823 68.5828 44.5439 69.0797 44.5439C69.5717 44.5445 69.7062 44.8958 69.7218 45.0694ZM73.0702 42.7342H73.0321V44.5842C72.8561 44.2604 72.5418 44.0889 72.1137 44.0889C71.187 44.0889 70.8564 44.9798 70.8564 45.8141C70.8564 46.9229 71.2823 47.4854 72.1216 47.4854C72.6208 47.4854 72.9049 47.2069 73.0321 46.9755V47.4126H73.6198V42.7336H73.0702V42.7342ZM72.2275 47.0304C71.7568 47.0304 71.5193 46.6506 71.5193 45.9009C71.5193 45.2824 71.6453 44.5439 72.2426 44.5439C72.7878 44.5439 73.0315 45.1759 73.0315 45.8012C73.0321 46.2763 72.813 47.0304 72.2275 47.0304ZM74.4984 44.1623H74.4603V47.4131H75.0474V44.1623H74.4984ZM77.2701 44.0889C76.2885 44.0889 75.7719 44.6509 75.7719 45.7138C75.7719 46.8399 76.4571 47.4854 77.6539 47.4854C77.9711 47.4854 78.1672 47.4619 78.4081 47.398L78.4367 47.3902V46.9509L78.3874 46.9649C78.2114 47.0192 77.98 47.0299 77.8181 47.0299C76.6146 47.0299 76.4347 46.1424 76.4347 45.614C76.4347 45.1199 76.6471 44.5439 77.2477 44.5439C77.771 44.5439 77.8495 44.9344 77.8495 45.1669V45.2045H78.5325V45.1669C78.533 44.8431 78.4103 44.0889 77.2701 44.0889ZM80.2251 44.0889C79.262 44.0889 78.9096 44.5663 78.9012 45.0134L78.8989 45.0515H79.5421L79.5489 45.0185C79.5836 44.7725 79.6934 44.5433 80.2403 44.5433C80.5871 44.5433 80.7938 44.6823 80.8588 44.9546C80.8784 45.0498 80.8796 45.358 80.8807 45.5199C80.7759 45.5327 80.6702 45.5379 80.5647 45.5356C79.8632 45.5356 78.8182 45.8085 78.8182 46.5598C78.8182 47.1386 79.1925 47.4843 79.8195 47.4843C80.3887 47.4843 80.7451 47.2316 80.8952 47.0495V47.4114H81.4673V45.1462C81.4667 44.6924 81.339 44.0889 80.2251 44.0889ZM79.9478 47.0304C79.7225 47.0304 79.4805 46.8988 79.4805 46.6085C79.4805 46.0864 80.3002 45.9721 80.6162 45.9721H80.8779C80.8756 46.2903 80.8398 46.3699 80.7608 46.5312L80.7479 46.5592C80.6145 46.8327 80.2761 47.0304 79.9478 47.0304ZM82.3262 42.7342H82.2876V47.4131H82.8753V42.7342H82.3262ZM87.6748 42.6608C85.9379 42.6608 85.6796 44.1186 85.6796 44.9871C85.6796 45.4521 85.7508 46.12 86.092 46.6573C86.441 47.2069 86.9862 47.4854 87.7129 47.4854C88.4004 47.4854 88.7853 47.3336 89.0162 47.2434C89.047 47.231 89.0772 47.2198 89.1025 47.2092L89.1265 47.2002V46.5626L89.0683 46.6024C88.9304 46.6943 88.5113 46.9755 87.8535 46.9755C86.5828 46.9755 86.394 45.7457 86.394 45.0123C86.394 43.7897 86.8254 43.1695 87.6743 43.1695C88.2267 43.1695 88.5847 43.5057 88.5847 44.0245V44.0626H89.321V44.0245C89.3221 43.197 88.6755 42.6608 87.6748 42.6608ZM90.8859 44.0889C89.9614 44.0889 89.4504 44.6548 89.4504 45.6807C89.4504 46.845 90.083 47.486 91.2344 47.486C91.5537 47.486 91.835 47.454 92.0647 47.3924L92.0922 47.3845V46.9352L92.0474 46.9442C92.0168 46.9512 91.9862 46.9579 91.9555 46.9643C91.8199 46.9968 91.6675 47.0304 91.347 47.0304C90.3743 47.0304 90.1138 46.1782 90.1138 45.6745V45.5244H92.1768V45.3333C92.1762 44.5545 91.6921 44.0889 90.8859 44.0889ZM91.5084 45.0694H90.1614C90.2062 44.903 90.3637 44.5439 90.864 44.5439C91.3599 44.5445 91.4932 44.8958 91.5084 45.0694ZM94.4684 44.0889C93.7669 44.0889 93.4924 44.5058 93.3708 44.7781V44.1618H92.7847V47.4126H93.3713V46.0684C93.3713 45.4756 93.7193 44.6184 94.3496 44.6184C94.8135 44.6184 94.8388 44.9966 94.8388 45.614V47.4126H95.4254V45.107C95.4248 44.5999 95.1295 44.0889 94.4684 44.0889ZM96.9724 44.1623L96.9656 43.1729V43.1079L96.9074 43.1398L96.4042 43.4267L96.3846 43.4373V44.1629H95.798V44.619H96.3846V46.6282C96.3846 47.2288 96.6933 47.486 97.4167 47.486C97.5567 47.486 97.7058 47.4748 97.8739 47.4523L97.9081 47.4479V46.957L97.8576 46.9711L97.8184 46.9834C97.7276 47.0103 97.6621 47.0299 97.522 47.0299C97.1522 47.0299 96.9729 46.868 96.9729 46.5346V44.6179H97.9361V44.1618H96.9724V44.1623ZM99.497 44.1887C98.5692 44.1887 98.0582 44.7546 98.0582 45.781C98.0582 46.9447 98.6908 47.5857 99.8411 47.5857C100.163 47.5857 100.442 47.5538 100.67 47.491L100.699 47.4826V47.0344L100.653 47.0439C100.622 47.0495 100.595 47.0568 100.566 47.0629C100.429 47.0949 100.278 47.1302 99.9548 47.1302C98.981 47.1302 98.7205 46.2769 98.7205 45.7737V45.6236H100.783V45.4325C100.783 44.6537 100.303 44.1887 99.497 44.1887ZM100.116 45.1686H98.7687C98.8146 45.0005 98.972 44.6442 99.4724 44.6442C99.9677 44.6442 100.1 44.9938 100.116 45.1686ZM103.182 44.1887C102.442 44.1887 102.138 44.5646 102.006 44.7887V44.2615H101.419V47.5123H102.006V46.1609C102.006 45.2644 102.436 44.7506 103.182 44.7506H103.22V44.1887H103.182ZM51.6109 44.1623H51.5728V47.4131H52.1605V44.1623H51.6109ZM74.7589 43.6172C74.8555 43.6172 74.9481 43.5788 75.0164 43.5105C75.0847 43.4422 75.1231 43.3496 75.1231 43.253C75.1231 43.1564 75.0847 43.0638 75.0164 42.9955C74.9481 42.9272 74.8555 42.8888 74.7589 42.8888C74.6623 42.8888 74.5697 42.9272 74.5014 42.9955C74.4331 43.0638 74.3947 43.1564 74.3947 43.253C74.3947 43.3496 74.4331 43.4422 74.5014 43.5105C74.5697 43.5788 74.6623 43.6172 74.7589 43.6172ZM51.8815 43.6172C52.0826 43.6172 52.2451 43.4547 52.2451 43.2541C52.2451 43.1572 52.2066 43.0643 52.1381 42.9958C52.0696 42.9273 51.9767 42.8888 51.8798 42.8888C51.7829 42.8888 51.69 42.9273 51.6215 42.9958C51.553 43.0643 51.5145 43.1572 51.5145 43.2541C51.5145 43.4547 51.6787 43.6172 51.8815 43.6172Z" fill="#2CC214"/>
</svg>
