<svg width="16" height="16" viewBox="0 0 16 16" fill="none" xmlns="http://www.w3.org/2000/svg">
<path d="M7.8877 0C12.2437 6.90623e-05 15.7754 3.53164 15.7754 7.8877C15.7753 11.8964 12.7839 15.2036 8.91211 15.7061V9.61621H10.6299L10.8574 7.47168H8.91211L8.91504 6.39844C8.91507 5.83951 8.96861 5.5401 9.77148 5.54004H10.8457V3.39551H9.12793C7.06457 3.39551 6.33802 4.43543 6.33789 6.18457V7.47266H5.05176V9.61719H6.33789V15.6221C6.46249 15.6469 6.58822 15.6686 6.71484 15.6875C2.91503 15.121 6.27454e-05 11.8452 0 7.8877C0 3.5316 3.5316 0 7.8877 0Z" fill="#121314"/>
</svg>
