<svg width="16" height="16" viewBox="0 0 16 16" fill="none" xmlns="http://www.w3.org/2000/svg">
<path d="M4.5125 3.479C7.00481 3.479 9.025 5.50322 9.025 7.99994C9.025 10.4967 7.00462 12.5208 4.5125 12.5208C2.0205 12.5208 0 10.4967 0 7.99994C0 5.50328 2.02031 3.479 4.5125 3.479ZM11.7188 3.74381C12.9649 3.74381 13.9751 5.64917 13.9751 7.99994H13.9753C13.9753 10.3502 12.9651 12.2561 11.719 12.2561C10.4729 12.2561 9.46269 10.3502 9.46269 7.99994C9.46269 5.6498 10.4727 3.74381 11.7188 3.74381H11.7188ZM15.2064 4.18716C15.6446 4.18716 16 5.8942 16 8.00001C16 10.1051 15.6447 11.8129 15.2064 11.8129C14.7681 11.8129 14.4131 10.1056 14.4131 8.00001C14.4131 5.89433 14.7683 4.18716 15.2064 4.18716Z" fill="white"/>
</svg>
