<svg width="16" height="16" viewBox="0 0 16 16" fill="none" xmlns="http://www.w3.org/2000/svg">
<path fill-rule="evenodd" clip-rule="evenodd" d="M6.07027 4.5623C5.92354 4.23608 5.76905 4.22955 5.62946 4.22384C5.51528 4.21894 5.38456 4.21924 5.25406 4.21924C5.12345 4.21924 4.91121 4.26833 4.73172 4.46435C4.55213 4.66037 4.04602 5.13423 4.04602 6.098C4.04602 7.06186 4.74805 7.99318 4.8459 8.12399C4.94386 8.2546 6.20109 10.2956 8.19217 11.0808C9.84694 11.7333 10.1837 11.6035 10.5429 11.5709C10.902 11.5382 11.7018 11.0971 11.8651 10.6397C12.0283 10.1823 12.0283 9.79029 11.9794 9.70835C11.9304 9.62671 11.7998 9.57774 11.6038 9.47978C11.4079 9.38182 10.4449 8.90785 10.2653 8.84254C10.0857 8.77724 9.95511 8.74458 9.8245 8.94071C9.69389 9.13662 9.31868 9.57774 9.2044 9.70835C9.09012 9.83926 8.97583 9.85558 8.77992 9.75762C8.584 9.65937 7.95309 9.45273 7.20464 8.78539C6.6223 8.26621 6.22914 7.62499 6.11486 7.42888C6.00057 7.23296 6.10261 7.12684 6.20088 7.02918C6.28883 6.94143 6.39679 6.80051 6.49475 6.68612C6.5925 6.57173 6.62515 6.4901 6.69046 6.35949C6.75576 6.22867 6.72311 6.1143 6.67413 6.01634C6.62515 5.91838 6.24445 4.94964 6.07027 4.5623V4.5623Z" fill="#132238"/>
<path d="M13.5755 2.29991C12.0952 0.818604 10.1269 0.00239218 8.02975 0.00146484C3.70826 0.00146484 0.191453 3.51713 0.189716 7.8384C0.189207 9.21972 0.550124 10.5681 1.23613 11.7566L0.123901 15.8178L4.27998 14.728C5.42508 15.3525 6.71435 15.6816 8.02638 15.6821H8.02971H8.02975C12.3505 15.6821 15.8678 12.1658 15.8697 7.84472C15.8704 5.75047 15.0556 3.78132 13.5755 2.29991V2.29991ZM8.02975 14.3584H8.0272C6.85772 14.3578 5.71089 14.0438 4.7106 13.4503L4.47253 13.3092L2.00623 13.9558L2.66469 11.552L2.50959 11.3056C1.85725 10.2684 1.51287 9.06972 1.51338 7.83892C1.5148 4.24723 4.43784 1.32523 8.0322 1.32523C9.7728 1.32595 11.4087 2.0044 12.6391 3.23562C13.8694 4.46683 14.5464 6.10354 14.5459 7.84424C14.5444 11.436 11.6212 14.3584 8.02975 14.3584Z" fill="#132238"/>
</svg>
