<svg width="16" height="16" viewBox="0 0 16 16" fill="none" xmlns="http://www.w3.org/2000/svg">
<path fill-rule="evenodd" clip-rule="evenodd" d="M6.07112 4.5623C5.92439 4.23608 5.76991 4.22955 5.63031 4.22384C5.51613 4.21894 5.38542 4.21924 5.25491 4.21924C5.1243 4.21924 4.91206 4.26833 4.73258 4.46435C4.55299 4.66037 4.04688 5.13423 4.04688 6.098C4.04688 7.06186 4.7489 7.99318 4.84676 8.12399C4.94471 8.2546 6.20194 10.2956 8.19303 11.0808C9.84779 11.7333 10.1845 11.6035 10.5437 11.5709C10.9029 11.5382 11.7027 11.0971 11.8659 10.6397C12.0292 10.1823 12.0292 9.79029 11.9802 9.70835C11.9312 9.62671 11.8006 9.57773 11.6047 9.47978C11.4088 9.38182 10.4457 8.90785 10.2662 8.84254C10.0866 8.77724 9.95596 8.74458 9.82535 8.94071C9.69474 9.13662 9.31954 9.57773 9.20525 9.70835C9.09097 9.83926 8.97669 9.85558 8.78077 9.75762C8.58486 9.65937 7.95394 9.45273 7.2055 8.78539C6.62316 8.26621 6.23 7.62499 6.11571 7.42888C6.00143 7.23296 6.10346 7.12684 6.20173 7.02918C6.28968 6.94143 6.39765 6.80051 6.4956 6.68612C6.59335 6.57173 6.62601 6.4901 6.69131 6.35949C6.75662 6.22867 6.72396 6.1143 6.67498 6.01634C6.62601 5.91838 6.2453 4.94964 6.07112 4.5623Z" fill="white"/>
<path d="M13.5746 2.29991C12.0944 0.818604 10.126 0.00239218 8.02889 0.00146484C3.70741 0.00146484 0.190599 3.51713 0.188862 7.8384C0.188352 9.21972 0.54927 10.5681 1.23528 11.7566L0.123047 15.8178L4.27913 14.728C5.42422 15.3525 6.7135 15.6816 8.02552 15.6821H8.02885H8.02889C12.3497 15.6821 15.867 12.1658 15.8688 7.84472C15.8695 5.75047 15.0547 3.78132 13.5746 2.29991ZM8.02889 14.3584H8.02635C6.85687 14.3578 5.71004 14.0438 4.70974 13.4503L4.47168 13.3092L2.00537 13.9558L2.66384 11.552L2.50874 11.3056C1.8564 10.2684 1.51202 9.06972 1.51253 7.83892C1.51395 4.24723 4.43699 1.32523 8.03135 1.32523C9.77195 1.32595 11.4079 2.0044 12.6382 3.23562C13.8685 4.46683 14.5456 6.10354 14.5451 7.84424C14.5435 11.436 11.6204 14.3584 8.02889 14.3584Z" fill="white"/>
</svg>
